<svg xmlns="http://www.w3.org/2000/svg" xmlns:xlink="http://www.w3.org/1999/xlink" xmlns:inkscape="http://www.inkscape.org/namespaces/inkscape" version="1.1" width="390.023" height="230.692" viewBox="0 0 390.023 230.692">
<text xml:space="preserve" transform="matrix(1 0 -0 1 0 230.692)" font-size="14.3462" font-family="Computer Modern" font-weight="bold"><tspan y="-207.446" x="89.07 100.73346 107.33271 114.692317 122.53969 128.82332 133.31368 142.28005 155.73677 162.0204 170.98677 183.7262 191.0858 199.60744 208.12908 212.61943 219.21869 227.2956 236.26197 249.7187 257.0783 265.59996">Creatingtheenvironment</tspan></text>
<path transform="matrix(1,0,0,-1,67.054,161.392)" d="M52.70853 63.47346H-52.70853C-54.90947 63.47346-56.69363 61.6893-56.69363 59.48836V53.89886C-56.69363 51.69792-54.90947 49.91376-52.70853 49.91376H52.70853C54.90947 49.91376 56.69363 51.69792 56.69363 53.89886V59.48836C56.69363 61.6893 54.90947 63.47346 52.70853 63.47346ZM-56.69363 49.91376" fill="#e6e6ff"/>
<path transform="matrix(1,0,0,-1,67.054,161.392)" stroke-width=".79701" stroke-linecap="butt" stroke-miterlimit="10" stroke-linejoin="miter" fill="none" stroke="#000000" d="M52.70853 63.47346H-52.70853C-54.90947 63.47346-56.69363 61.6893-56.69363 59.48836V53.89886C-56.69363 51.69792-54.90947 49.91376-52.70853 49.91376H52.70853C54.90947 49.91376 56.69363 51.69792 56.69363 53.89886V59.48836C56.69363 61.6893 54.90947 63.47346 52.70853 63.47346ZM-56.69363 49.91376"/>
<text xml:space="preserve" transform="matrix(1 0 -0 1 0 230.69199)" font-size="9.9626" font-family="Computer Modern" font-weight="bold"><tspan y="-122.534" x="39.031 49.910158 53.088228 59.454328 62.632398 67.72328 73.451778 79.81788 86.18398">Miniconda</tspan></text>
<path transform="matrix(1,0,0,-1,67.054,161.392)" d="M52.70853-7.57687H-52.70853C-54.90947-7.57687-56.69363-9.36104-56.69363-11.56198V-54.95465C-56.69363-57.1556-54.90947-58.93976-52.70853-58.93976H52.70853C54.90947-58.93976 56.69363-57.1556 56.69363-54.95465V-11.56198C56.69363-9.36104 54.90947-7.57687 52.70853-7.57687ZM-56.69363-58.93976" fill="#f2f2f2"/>
<path transform="matrix(1,0,0,-1,67.054,161.392)" stroke-width=".79701" stroke-linecap="butt" stroke-miterlimit="10" stroke-linejoin="miter" fill="none" stroke="#000000" d="M52.70853-7.57687H-52.70853C-54.90947-7.57687-56.69363-9.36104-56.69363-11.56198V-54.95465C-56.69363-57.1556-54.90947-58.93976-52.70853-58.93976H52.70853C54.90947-58.93976 56.69363-57.1556 56.69363-54.95465V-11.56198C56.69363-9.36104 54.90947-7.57687 52.70853-7.57687ZM-56.69363-58.93976"/>
<text xml:space="preserve" transform="matrix(1 0 -0 1 0 230.692)" font-size="9.9626" font-family="Computer Modern" font-weight="bold"><tspan y="-51.484" x="18.666 26.944922 32.673418 39.039518 45.405618">Conda</tspan></text>
<text xml:space="preserve" transform="matrix(1 0 -0 1 0 230.692)" font-size="9.9626" font-family="Computer Modern"><tspan y="-39.529" x="18.666 25.450531 30.710783 34.586236 40.125444 45.106744 53.963499 56.7331 62.27231 66.19757 70.07302 75.05432 77.82392 80.59352 85.016918">Pythoninstaller</tspan><tspan y="-27.574" x="18.666 25.171578 30.152878 34.297319 39.00963 43.99093 48.97223 56.71317 65.01202 69.99332 75.532527 80.513828 85.495128 89.91852">Packagemanager</tspan><tspan y="-15.6189999" x="18.666 25.450531 30.710783 35.971036 38.74064 42.645978 47.627279 53.166486 61.465333 65.888729 71.14898 78.35194 86.65078 91.63208 97.17129 102.15259 107.13389 111.55728">Environmentmanager</tspan></text>
<path transform="matrix(1,0,0,-1,67.054,161.392)" d="M308.6269-14.52315H174.86302C172.6621-14.52315 170.87792-16.30731 170.87792-18.50826V-48.00839C170.87792-50.20934 172.6621-51.9935 174.86302-51.9935H308.6269C310.82786-51.9935 312.612-50.20934 312.612-48.00839V-18.50826C312.612-16.30731 310.82786-14.52315 308.6269-14.52315ZM170.87792-51.9935" fill="#e6ffe6"/>
<path transform="matrix(1,0,0,-1,67.054,161.392)" stroke-width=".79701" stroke-linecap="butt" stroke-miterlimit="10" stroke-linejoin="miter" fill="none" stroke="#000000" d="M308.6269-14.52315H174.86302C172.6621-14.52315 170.87792-16.30731 170.87792-18.50826V-48.00839C170.87792-50.20934 172.6621-51.9935 174.86302-51.9935H308.6269C310.82786-51.9935 312.612-50.20934 312.612-48.00839V-18.50826C312.612-16.30731 310.82786-14.52315 308.6269-14.52315ZM170.87792-51.9935"/>
<text xml:space="preserve" transform="matrix(1 0 -0 1 0 230.692)" font-size="9.9626" font-family="Computer Modern" font-weight="bold"><tspan y="-44.538" x="265.708 274.7142 279.0579 289.23966 294.48997 300.53724 306.58454 309.7626 314.48487 320.21336 326.57945 336.1236 341.3739 347.42118">GISenvironment</tspan></text>
<text xml:space="preserve" transform="matrix(1 0 -0 1 0 230.692)" font-size="9.9626" font-family="Computer Modern"><tspan y="-32.583" x="265.708 272.49256 277.7528 281.62828 287.16749 292.14878 301.00553 305.98683 308.7564 313.7377">Python3.11</tspan></text>
<path transform="matrix(1,0,0,-1,67.054,161.392)" stroke-width=".79701" stroke-linecap="butt" stroke-miterlimit="10" stroke-linejoin="miter" fill="none" stroke="#000000" d="M0 49.51526V-3.06801"/>
<path transform="matrix(0,1,1,0,67.054,161.99494)" d="M5.44046 0 1.28699 1.5706 2.66432 0 1.28699-1.5706Z"/>
<path transform="matrix(0,1,1,0,67.054,161.99494)" stroke-width=".79701" stroke-linecap="butt" stroke-miterlimit="10" stroke-linejoin="miter" fill="none" stroke="#000000" d="M5.44046 0 1.28699 1.5706 2.66432 0 1.28699-1.5706Z"/>
<path transform="matrix(1,0,0,-1,67.054,161.392)" stroke-width=".79701" stroke-linecap="butt" stroke-miterlimit="10" stroke-linejoin="miter" fill="none" stroke="#000000" d="M57.09213-33.25832H166.36907"/>
<path transform="matrix(1,0,0,-1,230.95798,194.65032)" d="M5.44046 0 1.28699 1.5706 2.66432 0 1.28699-1.5706Z"/>
<path transform="matrix(1,0,0,-1,230.95798,194.65032)" stroke-width=".79701" stroke-linecap="butt" stroke-miterlimit="10" stroke-linejoin="miter" fill="none" stroke="#000000" d="M5.44046 0 1.28699 1.5706 2.66432 0 1.28699-1.5706Z"/>
</svg>
