<svg xmlns="http://www.w3.org/2000/svg" xmlns:xlink="http://www.w3.org/1999/xlink" xmlns:inkscape="http://www.inkscape.org/namespaces/inkscape" version="1.1" width="390.023" height="388.333" viewBox="0 0 390.023 388.333">
<text xml:space="preserve" transform="matrix(1 0 -0 1 0 388.333)" font-size="14.3462" font-family="Computer Modern" font-weight="bold"><tspan y="-365.087" x="99.523 112.14766 119.77984 136.82312 143.10675 156.56348 161.05384 170.0202 176.38993 182.67356 190.52092 195.01128 204.88146 213.84783 222.35512 230.8911 239.85747 247.21707 253.81633">HowtoinstallSpyder?</tspan></text>
<path transform="matrix(1,0,0,-1,67.054,161.391)" d="M52.70853 63.47346H-52.70853C-54.90947 63.47346-56.69363 61.6893-56.69363 59.48836V53.89886C-56.69363 51.69792-54.90947 49.91376-52.70853 49.91376H52.70853C54.90947 49.91376 56.69363 51.69792 56.69363 53.89886V59.48836C56.69363 61.6893 54.90947 63.47346 52.70853 63.47346ZM-56.69363 49.91376" fill="#e6e6ff"/>
<path transform="matrix(1,0,0,-1,67.054,161.391)" stroke-width=".79701" stroke-linecap="butt" stroke-miterlimit="10" stroke-linejoin="miter" fill="none" stroke="#000000" d="M52.70853 63.47346H-52.70853C-54.90947 63.47346-56.69363 61.6893-56.69363 59.48836V53.89886C-56.69363 51.69792-54.90947 49.91376-52.70853 49.91376H52.70853C54.90947 49.91376 56.69363 51.69792 56.69363 53.89886V59.48836C56.69363 61.6893 54.90947 63.47346 52.70853 63.47346ZM-56.69363 49.91376"/>
<text xml:space="preserve" transform="matrix(1 0 -0 1 0 388.333)" font-size="9.9626" font-family="Computer Modern" font-weight="bold"><tspan y="-280.175" x="39.031 49.910158 53.088228 59.454328 62.632398 67.72328 73.451778 79.81788 86.18398">Miniconda</tspan></text>
<path transform="matrix(1,0,0,-1,67.054,161.391)" d="M52.70853-7.57687H-52.70853C-54.90947-7.57687-56.69363-9.36104-56.69363-11.56198V-54.95465C-56.69363-57.1556-54.90947-58.93976-52.70853-58.93976H52.70853C54.90947-58.93976 56.69363-57.1556 56.69363-54.95465V-11.56198C56.69363-9.36104 54.90947-7.57687 52.70853-7.57687ZM-56.69363-58.93976" fill="#f2f2f2"/>
<path transform="matrix(1,0,0,-1,67.054,161.391)" stroke-width=".79701" stroke-linecap="butt" stroke-miterlimit="10" stroke-linejoin="miter" fill="none" stroke="#000000" d="M52.70853-7.57687H-52.70853C-54.90947-7.57687-56.69363-9.36104-56.69363-11.56198V-54.95465C-56.69363-57.1556-54.90947-58.93976-52.70853-58.93976H52.70853C54.90947-58.93976 56.69363-57.1556 56.69363-54.95465V-11.56198C56.69363-9.36104 54.90947-7.57687 52.70853-7.57687ZM-56.69363-58.93976"/>
<text xml:space="preserve" transform="matrix(1 0 -0 1 0 388.333)" font-size="9.9626" font-family="Computer Modern" font-weight="bold"><tspan y="-209.126" x="18.666 26.944922 32.673418 39.039518 45.405618">Conda</tspan></text>
<text xml:space="preserve" transform="matrix(1 0 -0 1 0 388.333)" font-size="9.9626" font-family="Computer Modern"><tspan y="-197.171" x="18.666 25.450531 30.710783 34.586236 40.125444 45.106744 53.963499 56.7331 62.27231 66.19757 70.07302 75.05432 77.82392 80.59352 85.016918">Pythoninstaller</tspan><tspan y="-185.21501" x="18.666 25.171578 30.152878 34.297319 39.00963 43.99093 48.97223 56.71317 65.01202 69.99332 75.532527 80.513828 85.495128 89.91852">Packagemanager</tspan><tspan y="-173.26001" x="18.666 25.450531 30.710783 35.971036 38.74064 42.645978 47.627279 53.166486 61.465333 65.888729 71.14898 78.35194 86.65078 91.63208 97.17129 102.15259 107.13389 111.55728">Environmentmanager</tspan></text>
<path transform="matrix(1,0,0,-1,67.054,161.391)" d="M308.6269 88.35272H174.86302C172.6621 88.35272 170.87792 86.56856 170.87792 84.36761V29.0196C170.87792 26.81866 172.6621 25.0345 174.86302 25.0345H308.6269C310.82786 25.0345 312.612 26.81866 312.612 29.0196V84.36761C312.612 86.56856 310.82786 88.35272 308.6269 88.35272ZM170.87792 25.0345" fill="#e6ffe6"/>
<path transform="matrix(1,0,0,-1,67.054,161.391)" stroke-width=".79701" stroke-linecap="butt" stroke-miterlimit="10" stroke-linejoin="miter" fill="none" stroke="#000000" d="M308.6269 88.35272H174.86302C172.6621 88.35272 170.87792 86.56856 170.87792 84.36761V29.0196C170.87792 26.81866 172.6621 25.0345 174.86302 25.0345H308.6269C310.82786 25.0345 312.612 26.81866 312.612 29.0196V84.36761C312.612 86.56856 310.82786 88.35272 308.6269 88.35272ZM170.87792 25.0345"/>
<text xml:space="preserve" transform="matrix(1 0 -0 1 0 388.333)" font-size="9.9626" font-family="Computer Modern" font-weight="bold"><tspan y="-305.054" x="265.708 274.7142 279.0579 289.23966 294.48997 300.53724 306.58454 309.7626 314.48487 320.21336 326.57945 336.1236 341.3739 347.42118">GISenvironment</tspan></text>
<text xml:space="preserve" transform="matrix(1 0 -0 1 0 388.333)" font-size="9.9626" font-family="Computer Modern"><tspan y="-293.099" x="265.708 272.49256 277.7528 281.62828 287.16749 292.14878 301.00553 305.98683 308.7564 313.7377">Python3.11</tspan><tspan y="-281.144" x="265.708 270.6893 275.1127 280.094 285.6332 290.6145 296.15373 301.69294 306.67424 313.91703 318.89833 321.6679">geopandas1.2</tspan><tspan y="-269.18904" x="265.708 269.63328 275.1725 280.15379 285.97196 290.39537 293.16496 301.74275 306.72404 309.49363">shapely1.1</tspan></text>
<text fill="#ff0000" xml:space="preserve" transform="matrix(1 0 -0 1 0 388.333)" font-size="9.9626" font-family="Computer Modern"><tspan y="-257.23304" x="265.708 269.63328 274.89353 280.15379 285.693 290.1164 294.02174 297.33927 302.32057 306.74397 310.6493 316.1885 320.6119 323.3815">spyder-kernels</tspan></text>
<path transform="matrix(1,0,0,-1,67.054,161.391)" d="M308.6269-32.45613H174.86302C172.6621-32.45613 170.87792-34.2403 170.87792-36.44124V-91.78923C170.87792-93.99017 172.6621-95.77434 174.86302-95.77434H308.6269C310.82786-95.77434 312.612-93.99017 312.612-91.78923V-36.44124C312.612-34.2403 310.82786-32.45613 308.6269-32.45613ZM170.87792-95.77434" fill="#fffcd5"/>
<path transform="matrix(1,0,0,-1,67.054,161.391)" stroke-width=".79701" stroke-linecap="butt" stroke-miterlimit="10" stroke-linejoin="miter" fill="none" stroke="#000000" d="M308.6269-32.45613H174.86302C172.6621-32.45613 170.87792-34.2403 170.87792-36.44124V-91.78923C170.87792-93.99017 172.6621-95.77434 174.86302-95.77434H308.6269C310.82786-95.77434 312.612-93.99017 312.612-91.78923V-36.44124C312.612-34.2403 310.82786-32.45613 308.6269-32.45613ZM170.87792-95.77434"/>
<text xml:space="preserve" transform="matrix(1 0 -0 1 -.000030517579 388.333)" font-size="9.9626" font-family="Computer Modern" font-weight="bold"><tspan y="-184.247" x="266.683 277.56217 288.27198 293.52229 299.56956 305.61686 308.79493 313.51719 319.24568 325.61177 335.1559 340.40623 346.4535">MLenvironment</tspan></text>
<text xml:space="preserve" transform="matrix(1 0 -0 1 -.000030517579 388.333)" font-size="9.9626" font-family="Computer Modern"><tspan y="-172.29199" x="266.683 273.46757 278.7278 282.60328 288.1425 293.12379 301.98054 306.96183 309.7314 314.7127">Python3.10</tspan><tspan y="-160.33699" x="266.683 271.94328 277.48249 285.78135 291.0416 299.62937 304.61067 307.38026">numpy2.1</tspan><tspan y="-148.381" x="266.683 272.22224 277.20353 282.74275 288.28196 293.26325 300.50605 305.48735 308.25694">pandas1.5</tspan></text>
<text fill="#ff0000" xml:space="preserve" transform="matrix(1 0 -0 1 -.000030517579 388.333)" font-size="9.9626" font-family="Computer Modern"><tspan y="-136.426" x="266.683 270.60829 275.86854 281.12879 286.668 291.0914 294.99674 298.31428 303.29557 307.71897 311.6243 317.1635 321.5869 324.3565">spyder-kernels</tspan></text>
<path transform="matrix(1,0,0,-1,67.054,161.391)" d="M308.6269-153.26499H174.86302C172.6621-153.26499 170.87792-155.04915 170.87792-157.25009V-212.5981C170.87792-214.79904 172.6621-216.5832 174.86302-216.5832H308.6269C310.82786-216.5832 312.612-214.79904 312.612-212.5981V-157.25009C312.612-155.04915 310.82786-153.26499 308.6269-153.26499ZM170.87792-216.5832" fill="#f9e6ec"/>
<path transform="matrix(1,0,0,-1,67.054,161.391)" stroke-width=".79701" stroke-linecap="butt" stroke-miterlimit="10" stroke-linejoin="miter" fill="none" stroke="#000000" d="M308.6269-153.26499H174.86302C172.6621-153.26499 170.87792-155.04915 170.87792-157.25009V-212.5981C170.87792-214.79904 172.6621-216.5832 174.86302-216.5832H308.6269C310.82786-216.5832 312.612-214.79904 312.612-212.5981V-157.25009C312.612-155.04915 310.82786-153.26499 308.6269-153.26499ZM170.87792-216.5832"/>
<text xml:space="preserve" transform="matrix(1 0 -0 1 0 388.33299)" font-size="9.9626" font-family="Computer Modern" font-weight="bold"><tspan y="-63.44" x="253.046 261.64375 266.89405 271.41706 276.66737 282.23646 286.9587 291.73078 301.91255 307.16285 313.2101 319.25743 322.44544 327.1677 332.89619 339.26228 348.80644 354.05674 360.104">Researchenvironment</tspan></text>
<text xml:space="preserve" transform="matrix(1 0 -0 1 0 388.33299)" font-size="9.9626" font-family="Computer Modern"><tspan y="-51.483999" x="253.046 259.83055 265.0908 268.96626 274.50547 279.48677 288.3435 293.3248 296.0944">Python3.8</tspan><tspan y="-39.529" x="253.046 256.97129 260.84675 265.82804 269.7035 273.62876 281.9276 287.18788 292.72709 297.15049 299.92008 307.16288 312.14418 314.91377">statsmodels0.2</tspan><tspan y="-27.574" x="253.046 258.5852 263.0086 266.6051 273.51914 278.50044 282.40577 287.66603 296.25379 301.23509 304.00468">networkx1.1</tspan></text>
<text fill="#ff0000" xml:space="preserve" transform="matrix(1 0 -0 1 0 388.33299)" font-size="9.9626" font-family="Computer Modern"><tspan y="-15.6189999" x="253.046 256.97129 262.23155 267.4918 273.031 277.4544 281.35975 284.67729 289.65858 294.08198 297.9873 303.52653 307.94993 310.7195">spyder-kernels</tspan></text>
<path transform="matrix(1,0,0,-1,67.054,161.391)" d="M52.70853-144.77724H-52.70853C-54.90947-144.77724-56.69363-146.5614-56.69363-148.76235V-166.30716C-56.69363-168.5081-54.90947-170.29227-52.70853-170.29227H52.70853C54.90947-170.29227 56.69363-168.5081 56.69363-166.30716V-148.76235C56.69363-146.5614 54.90947-144.77724 52.70853-144.77724ZM-56.69363-170.29227" fill="#ffe6e6"/>
<path transform="matrix(1,0,0,-1,67.054,161.391)" stroke-width=".79701" stroke-linecap="butt" stroke-miterlimit="10" stroke-linejoin="miter" fill="none" stroke="#000000" d="M52.70853-144.77724H-52.70853C-54.90947-144.77724-56.69363-146.5614-56.69363-148.76235V-166.30716C-56.69363-168.5081-54.90947-170.29227-52.70853-170.29227H52.70853C54.90947-170.29227 56.69363-168.5081 56.69363-166.30716V-148.76235C56.69363-146.5614 54.90947-144.77724 52.70853-144.77724ZM-56.69363-170.29227"/>
<text xml:space="preserve" transform="matrix(1 0 -0 1 .0000019073487 388.333)" font-size="9.9626" font-family="Computer Modern" font-weight="bold"><tspan y="-71.927" x="19.288 25.654103 31.701399 37.748697 44.114797 49.365087 57.903036 62.246728 68.61283 73.13585 77.589138 83.158229 86.34626 89.52433 95.09342 99.54671 102.72478 108.45327">SpyderInstallation</tspan></text>
<path transform="matrix(1,0,0,-1,67.054,161.391)" stroke-width=".79701" stroke-linecap="butt" stroke-miterlimit="10" stroke-linejoin="miter" fill="none" stroke="#000000" d="M0 49.51526V-3.06801"/>
<path transform="matrix(0,1,1,0,67.054,161.99394)" d="M5.44046 0 1.28699 1.5706 2.66432 0 1.28699-1.5706Z"/>
<path transform="matrix(0,1,1,0,67.054,161.99394)" stroke-width=".79701" stroke-linecap="butt" stroke-miterlimit="10" stroke-linejoin="miter" fill="none" stroke="#000000" d="M5.44046 0 1.28699 1.5706 2.66432 0 1.28699-1.5706Z"/>
<path transform="matrix(1,0,0,-1,67.054,161.391)" stroke-width=".79701" stroke-linecap="butt" stroke-miterlimit="10" stroke-linejoin="miter" fill="none" stroke="#000000" d="M0-59.33827V-140.26837"/>
<path transform="matrix(0,1,1,0,67.054,299.1943)" d="M5.44046 0 1.28699 1.5706 2.66432 0 1.28699-1.5706Z"/>
<path transform="matrix(0,1,1,0,67.054,299.1943)" stroke-width=".79701" stroke-linecap="butt" stroke-miterlimit="10" stroke-linejoin="miter" fill="none" stroke="#000000" d="M5.44046 0 1.28699 1.5706 2.66432 0 1.28699-1.5706Z"/>
<path transform="matrix(1,0,0,-1,67.054,161.391)" stroke-width=".79701" stroke-linecap="butt" stroke-miterlimit="10" stroke-linejoin="miter" fill="none" stroke="#000000" d="M57.09213-12.06656 166.62796 28.7503"/>
<path transform="matrix(.93701,-.34915,-.34915,-.93701,231.37216,133.50139)" d="M5.44046 0 1.28699 1.5706 2.66432 0 1.28699-1.5706Z"/>
<path transform="matrix(.93701,-.34915,-.34915,-.93701,231.37216,133.50139)" stroke-width=".79701" stroke-linecap="butt" stroke-miterlimit="10" stroke-linejoin="miter" fill="none" stroke="#000000" d="M5.44046 0 1.28699 1.5706 2.66432 0 1.28699-1.5706Z"/>
<path transform="matrix(1,0,0,-1,67.054,161.391)" stroke-width=".79701" stroke-linecap="butt" stroke-miterlimit="10" stroke-linejoin="miter" fill="none" stroke="#000000" d="M57.09213-40.52725 166.40238-54.50107"/>
<path transform="matrix(.9919,.12679,.12679,-.9919,231.01126,215.57953)" d="M5.44046 0 1.28699 1.5706 2.66432 0 1.28699-1.5706Z"/>
<path transform="matrix(.9919,.12679,.12679,-.9919,231.01126,215.57953)" stroke-width=".79701" stroke-linecap="butt" stroke-miterlimit="10" stroke-linejoin="miter" fill="none" stroke="#000000" d="M5.44046 0 1.28699 1.5706 2.66432 0 1.28699-1.5706Z"/>
<path transform="matrix(1,0,0,-1,67.054,161.391)" stroke-width=".79701" stroke-linecap="butt" stroke-miterlimit="10" stroke-linejoin="miter" fill="none" stroke="#000000" d="M41.51517-59.33827 187.22443-150.68337"/>
<path transform="matrix(.84726,.53113,.53113,-.84726,252.18988,310.76509)" d="M5.44046 0 1.28699 1.5706 2.66432 0 1.28699-1.5706Z"/>
<path transform="matrix(.84726,.53113,.53113,-.84726,252.18988,310.76509)" stroke-width=".79701" stroke-linecap="butt" stroke-miterlimit="10" stroke-linejoin="miter" fill="none" stroke="#000000" d="M5.44046 0 1.28699 1.5706 2.66432 0 1.28699-1.5706Z"/>
<path transform="matrix(1,0,0,-1,67.054,161.391)" stroke-width=".79701" stroke-linecap="butt" stroke-dasharray="2.98883,2.98883" stroke-miterlimit="10" stroke-linejoin="miter" fill="none" stroke="#ff0000" d="M224.44191 24.636C176.81029-63.03198 126.13522-107.83884 37.11967-142.87348"/>
<path transform="matrix(-.93047,.36621,.36621,.93047,106.46735,303.36177)" d="M5.44046 0 1.28699 1.5706 2.66432 0 1.28699-1.5706Z" fill="#ff0000"/>
<path transform="matrix(-.93047,.36621,.36621,.93047,106.46735,303.36177)" stroke-width=".79701" stroke-linecap="butt" stroke-miterlimit="10" stroke-linejoin="miter" fill="none" stroke="#ff0000" d="M5.44046 0 1.28699 1.5706 2.66432 0 1.28699-1.5706Z"/>
<path transform="matrix(1,0,0,-1,67.054,161.391)" stroke-width=".79701" stroke-linecap="butt" stroke-dasharray="2.98883,2.98883" stroke-miterlimit="10" stroke-linejoin="miter" fill="none" stroke="#ff0000" d="M224.11173-96.17285C187.24884-165.11893 112.74306-195.02242 42.34978-171.96993"/>
<path transform="matrix(-.95032,-.3112,-.3112,.95032,111.74638,334.12806)" d="M5.44046 0 1.28699 1.5706 2.66432 0 1.28699-1.5706Z" fill="#ff0000"/>
<path transform="matrix(-.95032,-.3112,-.3112,.95032,111.74638,334.12806)" stroke-width=".79701" stroke-linecap="butt" stroke-miterlimit="10" stroke-linejoin="miter" fill="none" stroke="#ff0000" d="M5.44046 0 1.28699 1.5706 2.66432 0 1.28699-1.5706Z"/>
<path transform="matrix(1,0,0,-1,67.054,161.391)" stroke-width=".79701" stroke-linecap="butt" stroke-dasharray="2.98883,2.98883" stroke-miterlimit="10" stroke-linejoin="miter" fill="none" stroke="#ff0000" d="M177.36904-152.86649C133.45284-133.355 100.80246-131.09629 58.56917-143.2427"/>
<path transform="matrix(-.96101,.27638,.27638,.96101,127.99214,303.95243)" d="M5.44046 0 1.28699 1.5706 2.66432 0 1.28699-1.5706Z" fill="#ff0000"/>
<path transform="matrix(-.96101,.27638,.27638,.96101,127.99214,303.95243)" stroke-width=".79701" stroke-linecap="butt" stroke-miterlimit="10" stroke-linejoin="miter" fill="none" stroke="#ff0000" d="M5.44046 0 1.28699 1.5706 2.66432 0 1.28699-1.5706Z"/>
</svg>
