<svg xmlns="http://www.w3.org/2000/svg" xmlns:xlink="http://www.w3.org/1999/xlink" xmlns:inkscape="http://www.inkscape.org/namespaces/inkscape" version="1.1" width="398.129" height="385.427" viewBox="0 0 398.129 385.427">
<text xml:space="preserve" transform="matrix(1 0 -0 1 0 385.427)" font-size="14.3462" font-family="Computer Modern" font-weight="bold"><tspan y="-362.181" x="77.638 94.30829 102.82993 116.7314 125.69778 132.06749 144.80692 153.32855 157.81891 164.41817 170.7018 179.66817 187.51554 197.38571 204.74532 213.26696 221.78859 226.27895 232.8782 240.95511 249.92148 263.3782 270.7378 279.2451 285.52873 291.89845">Whyusevirtualenvironments?</tspan></text>
<path transform="matrix(1,0,0,-1,75.16,161.391)" d="M52.70853 63.47346H-52.70853C-54.90947 63.47346-56.69363 61.6893-56.69363 59.48836V53.89886C-56.69363 51.69792-54.90947 49.91376-52.70853 49.91376H52.70853C54.90947 49.91376 56.69363 51.69792 56.69363 53.89886V59.48836C56.69363 61.6893 54.90947 63.47346 52.70853 63.47346ZM-56.69363 49.91376" fill="#e6e6ff"/>
<path transform="matrix(1,0,0,-1,75.16,161.391)" stroke-width=".79701" stroke-linecap="butt" stroke-miterlimit="10" stroke-linejoin="miter" fill="none" stroke="#000000" d="M52.70853 63.47346H-52.70853C-54.90947 63.47346-56.69363 61.6893-56.69363 59.48836V53.89886C-56.69363 51.69792-54.90947 49.91376-52.70853 49.91376H52.70853C54.90947 49.91376 56.69363 51.69792 56.69363 53.89886V59.48836C56.69363 61.6893 54.90947 63.47346 52.70853 63.47346ZM-56.69363 49.91376"/>
<text xml:space="preserve" transform="matrix(1 0 -0 1 0 385.427)" font-size="9.9626" font-family="Computer Modern" font-weight="bold"><tspan y="-277.269" x="47.136 58.01516 61.19323 67.55933 70.737407 75.82829 81.556789 87.92289 94.288997">Miniconda</tspan></text>
<path transform="matrix(1,0,0,-1,75.16,161.391)" d="M52.70853-7.57687H-52.70853C-54.90947-7.57687-56.69363-9.36104-56.69363-11.56198V-54.95465C-56.69363-57.1556-54.90947-58.93976-52.70853-58.93976H52.70853C54.90947-58.93976 56.69363-57.1556 56.69363-54.95465V-11.56198C56.69363-9.36104 54.90947-7.57687 52.70853-7.57687ZM-56.69363-58.93976" fill="#f2f2f2"/>
<path transform="matrix(1,0,0,-1,75.16,161.391)" stroke-width=".79701" stroke-linecap="butt" stroke-miterlimit="10" stroke-linejoin="miter" fill="none" stroke="#000000" d="M52.70853-7.57687H-52.70853C-54.90947-7.57687-56.69363-9.36104-56.69363-11.56198V-54.95465C-56.69363-57.1556-54.90947-58.93976-52.70853-58.93976H52.70853C54.90947-58.93976 56.69363-57.1556 56.69363-54.95465V-11.56198C56.69363-9.36104 54.90947-7.57687 52.70853-7.57687ZM-56.69363-58.93976"/>
<text xml:space="preserve" transform="matrix(1 0 -0 1 .0000038146974 385.427)" font-size="9.9626" font-family="Computer Modern" font-weight="bold"><tspan y="-206.22" x="26.771 35.04992 40.778417 47.144517 53.510618">Conda</tspan></text>
<text xml:space="preserve" transform="matrix(1 0 -0 1 .0000038146974 385.427)" font-size="9.9626" font-family="Computer Modern"><tspan y="-194.265" x="26.771 33.55553 38.815786 42.691236 48.230443 53.211744 62.068498 64.8381 70.377307 74.30257 78.17802 83.15932 85.92892 88.69852 93.12191">Pythoninstaller</tspan><tspan y="-182.31" x="26.771 33.276578 38.257879 42.402318 47.114629 52.09593 57.07723 64.81817 73.11701 78.09831 83.63752 88.61882 93.60012 98.02351">Packagemanager</tspan><tspan y="-170.354" x="26.771 33.55553 38.815786 44.07604 46.845643 50.75098 55.73228 61.27149 69.570339 73.99373 79.25398 86.45694 94.75578 99.73708 105.27629 110.25759 115.23889 119.662288">Environmentmanager</tspan></text>
<path transform="matrix(1,0,0,-1,75.16,161.391)" d="M308.6269 87.38411H174.86302C172.6621 87.38411 170.87792 85.59995 170.87792 83.399V29.98822C170.87792 27.78728 172.6621 26.00311 174.86302 26.00311H308.6269C310.82786 26.00311 312.612 27.78728 312.612 29.98822V83.399C312.612 85.59995 310.82786 87.38411 308.6269 87.38411ZM170.87792 26.00311" fill="#e6ffe6"/>
<path transform="matrix(1,0,0,-1,75.16,161.391)" stroke-width=".79701" stroke-linecap="butt" stroke-miterlimit="10" stroke-linejoin="miter" fill="none" stroke="#000000" d="M308.6269 87.38411H174.86302C172.6621 87.38411 170.87792 85.59995 170.87792 83.399V29.98822C170.87792 27.78728 172.6621 26.00311 174.86302 26.00311H308.6269C310.82786 26.00311 312.612 27.78728 312.612 29.98822V83.399C312.612 85.59995 310.82786 87.38411 308.6269 87.38411ZM170.87792 26.00311"/>
<text xml:space="preserve" transform="matrix(1 0 -0 1 0 385.427)" font-size="9.9626" font-family="Computer Modern" font-weight="bold"><tspan y="-301.18" x="273.813 282.81919 287.16288 297.34465 302.59495 308.6422 314.6895 317.86759 322.58985 328.31834 334.68443 344.22859 349.47889 355.52616">GISenvironment</tspan></text>
<text xml:space="preserve" transform="matrix(1 0 -0 1 0 385.427)" font-size="9.9626" font-family="Computer Modern"><tspan y="-289.225" x="273.813 280.59754 285.8578 289.73326 295.27247 300.25376 309.1105 314.0918 316.8614 321.84269">Python3.11</tspan><tspan y="-277.269" x="273.813 278.79429 283.21769 288.19898 293.7382 298.71949 304.2587 309.7979 314.7792 322.022 327.0033 329.7729">geopandas1.2</tspan><tspan y="-265.31404" x="273.813 277.73826 283.27748 288.25877 294.07695 298.50035 301.26994 309.84773 314.829 317.5986">shapely1.1</tspan><tspan y="-253.35903" x="273.813 277.71833 282.69963 286.62489 290.50035 294.92375 298.82908 301.59867 309.8975 314.87879 317.64839">rasterio1.3</tspan></text>
<path transform="matrix(1,0,0,-1,75.16,161.391)" d="M308.6269-31.48752H174.86302C172.6621-31.48752 170.87792-33.27168 170.87792-35.47263V-88.8834C170.87792-91.08435 172.6621-92.86852 174.86302-92.86852H308.6269C310.82786-92.86852 312.612-91.08435 312.612-88.8834V-35.47263C312.612-33.27168 310.82786-31.48752 308.6269-31.48752ZM170.87792-92.86852" fill="#fffcd5"/>
<path transform="matrix(1,0,0,-1,75.16,161.391)" stroke-width=".79701" stroke-linecap="butt" stroke-miterlimit="10" stroke-linejoin="miter" fill="none" stroke="#000000" d="M308.6269-31.48752H174.86302C172.6621-31.48752 170.87792-33.27168 170.87792-35.47263V-88.8834C170.87792-91.08435 172.6621-92.86852 174.86302-92.86852H308.6269C310.82786-92.86852 312.612-91.08435 312.612-88.8834V-35.47263C312.612-33.27168 310.82786-31.48752 308.6269-31.48752ZM170.87792-92.86852"/>
<text xml:space="preserve" transform="matrix(1 0 -0 1 0 385.427)" font-size="9.9626" font-family="Computer Modern" font-weight="bold"><tspan y="-182.31" x="274.789 285.66816 296.37794 301.62825 307.6755 313.7228 316.90089 321.62315 327.35163 333.7177 343.26188 348.51219 354.55946">MLenvironment</tspan></text>
<text xml:space="preserve" transform="matrix(1 0 -0 1 0 385.427)" font-size="9.9626" font-family="Computer Modern"><tspan y="-170.355" x="274.789 281.57356 286.8338 290.70927 296.24848 301.22978 310.08653 315.0678 317.8374 322.8187">Python3.10</tspan><tspan y="-158.399" x="274.789 280.04927 285.58848 293.88734 299.14759 307.73536 312.71665 315.48625">numpy2.1</tspan><tspan y="-146.444" x="274.789 280.32823 285.3095 290.84873 296.38795 301.36924 308.61204 313.59333 316.3629">pandas1.5</tspan><tspan y="-134.489" x="274.789 278.71427 283.13768 285.90727 291.1675 293.9371 297.81257 301.1301 303.8997 308.3231 313.30439 317.20973 326.06648 331.04777 333.81736">scikit-learn2.2</tspan></text>
<path transform="matrix(1,0,0,-1,75.16,161.391)" d="M308.6269-150.35916H174.86302C172.6621-150.35916 170.87792-152.14333 170.87792-154.34427V-209.69226C170.87792-211.8932 172.6621-213.67737 174.86302-213.67737H308.6269C310.82786-213.67737 312.612-211.8932 312.612-209.69226V-154.34427C312.612-152.14333 310.82786-150.35916 308.6269-150.35916ZM170.87792-213.67737" fill="#f9e6ec"/>
<path transform="matrix(1,0,0,-1,75.16,161.391)" stroke-width=".79701" stroke-linecap="butt" stroke-miterlimit="10" stroke-linejoin="miter" fill="none" stroke="#000000" d="M308.6269-150.35916H174.86302C172.6621-150.35916 170.87792-152.14333 170.87792-154.34427V-209.69226C170.87792-211.8932 172.6621-213.67737 174.86302-213.67737H308.6269C310.82786-213.67737 312.612-211.8932 312.612-209.69226V-154.34427C312.612-152.14333 310.82786-150.35916 308.6269-150.35916ZM170.87792-213.67737"/>
<text xml:space="preserve" transform="matrix(1 0 -0 1 0 385.427)" font-size="9.9626" font-family="Computer Modern" font-weight="bold"><tspan y="-63.44" x="261.152 269.74974 275.00004 279.52305 284.77336 290.34245 295.0647 299.83677 310.01853 315.26884 321.3161 327.3634 330.54148 335.26374 340.99223 347.3583 356.9124 362.15278 368.21003">Researchenvironment</tspan></text>
<text xml:space="preserve" transform="matrix(1 0 -0 1 0 385.427)" font-size="9.9626" font-family="Computer Modern"><tspan y="-51.483999" x="261.152 267.93656 273.1968 277.07228 282.61149 287.59278 296.44953 301.43083 304.2004">Python3.8</tspan><tspan y="-39.529" x="261.152 265.07728 268.95274 273.93403 277.80949 281.73475 290.0336 295.29386 300.83308 305.25648 308.02607 315.26887 320.25016 323.01976">statsmodels0.2</tspan><tspan y="-27.574" x="261.152 266.69123 271.11463 274.71113 281.62516 286.60646 290.51179 295.77204 304.3598 309.3411 312.1107">networkx1.1</tspan><tspan y="-15.6189999" x="261.152 269.45088 274.43217 278.30763 283.84684 286.61643 291.59773 295.47319 298.24278 301.01237 309.8691 314.8504 317.62">matplotlib4.5</tspan></text>
<path transform="matrix(1,0,0,-1,75.16,161.391)" d="M60.81415-144.77724H-60.81415C-63.01509-144.77724-64.79926-146.5614-64.79926-148.76235V-190.2178C-64.79926-192.41875-63.01509-194.20291-60.81415-194.20291H60.81415C63.01509-194.20291 64.79926-192.41875 64.79926-190.2178V-148.76235C64.79926-146.5614 63.01509-144.77724 60.81415-144.77724ZM-64.79926-194.20291" fill="#ffe6e6"/>
<path transform="matrix(1,0,0,-1,75.16,161.391)" stroke-width=".79701" stroke-linecap="butt" stroke-miterlimit="10" stroke-linejoin="miter" fill="none" stroke="#000000" d="M60.81415-144.77724H-60.81415C-63.01509-144.77724-64.79926-146.5614-64.79926-148.76235V-190.2178C-64.79926-192.41875-63.01509-194.20291-60.81415-194.20291H60.81415C63.01509-194.20291 64.79926-192.41875 64.79926-190.2178V-148.76235C64.79926-146.5614 63.01509-144.77724 60.81415-144.77724ZM-64.79926-194.20291"/>
<text xml:space="preserve" transform="matrix(1 0 -0 1 .000002861023 385.427)" font-size="9.9626" font-family="Computer Modern" font-weight="bold"><tspan y="-69.021" x="13.682 25.52753 28.7056 33.158884 39.524984 45.25348 51.61958 59.88854 65.13883 71.186138 77.23343 80.4115 85.13377 90.86227 97.22837 106.772548 112.022838 118.0801 122.53339">Withoutenvironments</tspan></text>
<text xml:space="preserve" transform="matrix(1 0 -0 1 .000002861023 385.427)" font-size="9.9626" font-family="Computer Modern"><tspan y="-57.066" x="13.682 21.15395 23.923554 30.010704 35.54991 40.53121 44.67565 49.387964 54.369264 59.350564 63.773958 71.01676 79.315608 82.085208 87.34546 91.76885 100.63557 104.51102 109.49232 114.47362 118.89701 122.77246 128.31166 132.73506">Allpackagesmixedtogether</tspan><tspan y="-45.111" x="13.682 20.466532 25.726784 29.602236 35.14144 40.12274 48.979497 53.960798 56.7304 65.02924 73.33805 78.31935 81.08895 86.07025 94.369098 102.66794 107.64924 110.41884 115.40014">Python3.8/3.10/3.11</tspan><tspan y="-33.156" x="13.682 20.327054 24.750449 28.655789 32.581056 35.35066 40.33196 49.188714 53.612108 58.593408 64.132617 66.902217 69.67182 72.44142 76.864818 80.740268">Versionconflicts</tspan></text>
<path transform="matrix(1,0,0,-1,75.16,161.391)" stroke-width=".79701" stroke-linecap="butt" stroke-miterlimit="10" stroke-linejoin="miter" fill="none" stroke="#000000" d="M0 49.51526V-3.06801"/>
<path transform="matrix(0,1,1,0,75.16,161.99394)" d="M5.44046 0 1.28699 1.5706 2.66432 0 1.28699-1.5706Z"/>
<path transform="matrix(0,1,1,0,75.16,161.99394)" stroke-width=".79701" stroke-linecap="butt" stroke-miterlimit="10" stroke-linejoin="miter" fill="none" stroke="#000000" d="M5.44046 0 1.28699 1.5706 2.66432 0 1.28699-1.5706Z"/>
<path transform="matrix(1,0,0,-1,75.16,161.391)" stroke-width=".79701" stroke-linecap="butt" stroke-miterlimit="10" stroke-linejoin="miter" fill="none" stroke="#000000" d="M57.09213-12.06656 166.62796 28.7503"/>
<path transform="matrix(.93701,-.34915,-.34915,-.93701,239.47817,133.50139)" d="M5.44046 0 1.28699 1.5706 2.66432 0 1.28699-1.5706Z"/>
<path transform="matrix(.93701,-.34915,-.34915,-.93701,239.47817,133.50139)" stroke-width=".79701" stroke-linecap="butt" stroke-miterlimit="10" stroke-linejoin="miter" fill="none" stroke="#000000" d="M5.44046 0 1.28699 1.5706 2.66432 0 1.28699-1.5706Z"/>
<path transform="matrix(1,0,0,-1,75.16,161.391)" stroke-width=".79701" stroke-linecap="butt" stroke-miterlimit="10" stroke-linejoin="miter" fill="none" stroke="#000000" d="M57.09213-40.07076 166.39842-53.16698"/>
<path transform="matrix(.99286,.11894,.11894,-.99286,239.11095,214.26477)" d="M5.44046 0 1.28699 1.5706 2.66432 0 1.28699-1.5706Z"/>
<path transform="matrix(.99286,.11894,.11894,-.99286,239.11095,214.26477)" stroke-width=".79701" stroke-linecap="butt" stroke-miterlimit="10" stroke-linejoin="miter" fill="none" stroke="#000000" d="M5.44046 0 1.28699 1.5706 2.66432 0 1.28699-1.5706Z"/>
<path transform="matrix(1,0,0,-1,75.16,161.391)" stroke-width=".79701" stroke-linecap="butt" stroke-miterlimit="10" stroke-linejoin="miter" fill="none" stroke="#000000" d="M42.36957-59.33827 186.25627-147.80797"/>
<path transform="matrix(.8518,.52373,.52373,-.8518,259.31654,307.90794)" d="M5.44046 0 1.28699 1.5706 2.66432 0 1.28699-1.5706Z"/>
<path transform="matrix(.8518,.52373,.52373,-.8518,259.31654,307.90794)" stroke-width=".79701" stroke-linecap="butt" stroke-miterlimit="10" stroke-linejoin="miter" fill="none" stroke="#000000" d="M5.44046 0 1.28699 1.5706 2.66432 0 1.28699-1.5706Z"/>
</svg>
